<svg width="1437" height="196" viewBox="0 0 1437 196" fill="none" xmlns="http://www.w3.org/2000/svg">
<path d="M74.44 192C75.9333 192 77.4267 190.507 78.92 187.52C80.4133 184.533 81.16 179.627 81.16 172.8V44.8C81.16 40.1067 80.6267 37.3333 79.56 36.48C78.4933 35.6267 74.76 35.2 68.36 35.2H45C32.6267 35.2 22.6 36.5867 14.92 39.36C7.45333 41.92 2.54667 44.3733 0.2 46.72L6.6 9.59998V-7.62939e-06H205V9.59998L211.4 46.72C209.053 44.3733 204.04 41.92 196.36 39.36C188.893 36.5867 178.973 35.2 166.6 35.2H143.56C136.947 35.2 133.107 35.6267 132.04 36.48C130.973 37.3333 130.44 40.1067 130.44 44.8V172.8C130.44 179.627 131.187 184.533 132.68 187.52C134.173 190.507 135.667 192 137.16 192H74.44ZM230.5 192C231.993 192 233.487 190.507 234.98 187.52C236.473 184.533 237.22 179.627 237.22 172.8V19.2C237.22 12.3733 236.473 7.57332 234.98 4.79999C233.487 1.81332 231.993 0.213323 230.5 -7.62939e-06H293.22C291.727 -7.62939e-06 290.233 1.49333 288.74 4.47999C287.247 7.46666 286.5 12.48 286.5 19.52V68.48C286.5 73.1733 287.033 75.9467 288.1 76.8C289.38 77.6533 293.22 78.08 299.62 78.08H381.86C388.26 78.08 391.993 77.76 393.06 77.12C394.127 76.2667 394.66 73.3867 394.66 68.48V19.2C394.66 12.3733 393.913 7.57332 392.42 4.79999C390.927 1.81332 389.433 0.213323 387.94 -7.62939e-06H450.66C449.167 -7.62939e-06 447.673 1.49333 446.18 4.47999C444.687 7.46666 443.94 12.48 443.94 19.52V172.8C443.94 179.627 444.687 184.533 446.18 187.52C447.673 190.507 449.167 192 450.66 192H387.94C389.433 192 390.927 190.507 392.42 187.52C393.913 184.533 394.66 179.627 394.66 172.8V122.88C394.66 117.973 394.02 115.2 392.74 114.56C391.673 113.707 388.047 113.28 381.86 113.28H299.62C293.22 113.28 289.38 113.707 288.1 114.56C287.033 115.413 286.5 118.187 286.5 122.88V172.8C286.5 179.627 287.247 184.533 288.74 187.52C290.233 190.507 291.727 192 293.22 192H230.5ZM482.688 192C484.181 192 485.674 190.507 487.168 187.52C488.661 184.533 489.408 179.627 489.408 172.8V19.2C489.408 12.3733 488.661 7.57332 487.168 4.79999C485.674 1.81332 484.181 0.213323 482.688 -7.62939e-06H669.568V9.59998L675.968 46.72C670.634 44.3733 661.248 41.92 647.808 39.36C634.368 36.5867 618.154 35.2 599.168 35.2H551.808C545.408 35.2 541.568 35.7333 540.288 36.8C539.221 37.6533 538.688 40.32 538.688 44.8V68.48C538.688 73.1733 539.221 75.9467 540.288 76.8C541.568 77.6533 545.301 78.08 551.488 78.08H597.568C609.941 78.08 619.861 77.44 627.328 76.16C635.008 74.6667 640.021 73.1733 642.368 71.68C641.514 75.7333 640.554 80.4267 639.488 85.76C638.421 91.0933 637.568 96.2133 636.928 101.12C636.288 106.027 635.968 110.08 635.968 113.28H551.488C545.301 113.28 541.568 113.707 540.288 114.56C539.221 115.2 538.688 117.973 538.688 122.88V146.56C538.688 151.467 539.221 154.347 540.288 155.2C541.354 156.053 545.088 156.48 551.488 156.48H637.888C650.261 156.48 660.181 155.093 667.648 152.32C675.328 149.333 680.341 146.453 682.688 143.68L676.288 182.08V192H482.688ZM705.188 192C706.681 192 708.174 190.507 709.668 187.52C711.161 184.533 711.908 179.627 711.908 172.8V19.2C711.908 12.3733 711.161 7.57332 709.668 4.79999C708.174 1.81332 706.681 0.213323 705.188 -7.62939e-06H824.868C841.508 -7.62939e-06 854.521 1.91999 863.908 5.75999C873.294 9.6 879.908 15.1467 883.748 22.4C887.588 29.44 889.508 37.76 889.508 47.36C889.508 55.04 888.121 61.5467 885.348 66.88C882.788 72 879.481 76.0533 875.428 79.04C871.374 82.0267 867.321 84.2667 863.268 85.76V86.4C877.134 89.6 887.588 95.36 894.628 103.68C901.668 111.787 905.188 122.667 905.188 136.32C905.188 145.493 903.374 154.347 899.748 162.88C896.121 171.413 889.401 178.453 879.588 184C869.988 189.333 856.014 192 837.668 192H705.188ZM773.988 156.48H821.988C834.148 156.48 842.788 154.773 847.908 151.36C853.241 147.733 855.908 141.973 855.908 134.08C855.908 126.613 853.028 120.853 847.268 116.8C841.508 112.533 832.014 110.4 818.788 110.4H774.308C767.908 110.4 764.068 110.827 762.788 111.68C761.721 112.533 761.188 115.413 761.188 120.32V146.88C761.188 151.573 761.721 154.347 762.788 155.2C764.068 156.053 767.801 156.48 773.988 156.48ZM774.308 77.76H812.068C822.308 77.76 829.561 76.0533 833.828 72.64C838.308 69.0133 840.548 63.68 840.548 56.64C840.548 49.6 838.414 44.3733 834.148 40.96C830.094 37.5467 822.841 35.84 812.388 35.84H773.988C767.588 35.84 763.854 36.2667 762.788 37.12C761.721 37.76 761.188 40.5333 761.188 45.44V68.16C761.188 72.8533 761.721 75.6267 762.788 76.48C764.068 77.3333 767.908 77.76 774.308 77.76ZM930.813 192C932.306 192 933.693 190.613 934.973 187.84C936.466 184.853 937.213 179.84 937.213 172.8V19.2C937.213 12.3733 936.466 7.46666 934.973 4.47999C933.693 1.49333 932.306 -7.62939e-06 930.813 -7.62939e-06H992.573C991.079 -7.62939e-06 989.586 1.49333 988.093 4.47999C986.599 7.25333 985.853 12.2667 985.853 19.52V172.8C985.853 179.627 986.599 184.533 988.093 187.52C989.586 190.507 991.079 192 992.573 192H930.813ZM1024.88 192C1026.38 192 1027.76 190.507 1029.04 187.52C1030.54 184.533 1031.28 179.627 1031.28 172.8V19.2C1031.28 12.3733 1030.54 7.57332 1029.04 4.79999C1027.55 1.81332 1026.06 0.213323 1024.56 -7.62939e-06H1129.52C1147.66 -7.62939e-06 1162.27 2.66666 1173.36 7.99998C1184.67 13.12 1192.99 20.5867 1198.32 30.4C1203.66 40 1206.32 51.52 1206.32 64.96C1206.32 78.6133 1203.66 90.4533 1198.32 100.48C1192.99 110.293 1184.67 117.867 1173.36 123.2C1162.27 128.32 1147.66 130.88 1129.52 130.88H1080.56V172.8C1080.56 179.627 1081.31 184.533 1082.8 187.52C1084.3 190.507 1085.79 192 1087.28 192H1024.88ZM1093.68 95.68H1109.68C1122.27 95.68 1131.98 94.6133 1138.8 92.48C1145.84 90.3467 1150.75 87.04 1153.52 82.56C1156.3 78.08 1157.68 72.2133 1157.68 64.96C1157.68 57.92 1156.19 52.2667 1153.2 48C1150.43 43.7333 1145.74 40.7467 1139.12 39.04C1132.72 37.12 1123.98 36.16 1112.88 36.16H1093.68C1087.07 36.16 1083.23 36.5867 1082.16 37.44C1081.1 38.08 1080.56 40.5333 1080.56 44.8V86.72C1080.56 90.9867 1081.1 93.5467 1082.16 94.4C1083.23 95.2533 1087.07 95.68 1093.68 95.68ZM1333.79 195.2C1312.24 195.2 1294.53 191.787 1280.67 184.96C1266.8 178.133 1256.56 168.32 1249.95 155.52C1243.33 142.507 1240.03 127.04 1240.03 109.12V18.88C1240.03 12.0533 1239.28 7.25333 1237.79 4.47999C1236.51 1.49333 1235.12 -7.62939e-06 1233.63 -7.62939e-06H1295.07C1293.57 0.213323 1292.08 1.70666 1290.59 4.47999C1289.31 7.25333 1288.67 12.0533 1288.67 18.88V108.48C1288.67 122.133 1290.59 132.693 1294.43 140.16C1298.27 147.627 1303.6 152.747 1310.43 155.52C1317.25 158.293 1325.15 159.68 1334.11 159.68H1337.63C1344.67 159.68 1350.85 158.933 1356.19 157.44C1361.73 155.947 1366.32 153.387 1369.95 149.76C1373.79 146.133 1376.67 141.013 1378.59 134.4C1380.72 127.573 1381.79 118.933 1381.79 108.48V18.88C1381.79 12.0533 1381.04 7.25333 1379.55 4.47999C1378.27 1.49333 1376.88 -7.62939e-06 1375.39 -7.62939e-06H1436.83C1435.33 0.213323 1433.84 1.81332 1432.35 4.79999C1431.07 7.57332 1430.43 12.3733 1430.43 19.2V109.12C1430.43 127.04 1427.01 142.507 1420.19 155.52C1413.57 168.32 1403.33 178.133 1389.47 184.96C1375.81 191.787 1358.32 195.2 1336.99 195.2H1333.79Z" fill="white"/>
</svg>
